<svg xmlns="http://www.w3.org/2000/svg" viewBox="0 0 567.29 384"><defs><style>.cls-1{fill:#36393f;}.cls-2{fill:#2f3136;}.cls-3{fill:#6f7a7c;}.cls-4{fill:#393c42;}.cls-5{fill:#fff;}.cls-6{fill:#f45692;}.cls-7{fill:#18a4f2;}.cls-8{fill:#f7f7f7;}.cls-9{fill:#ef9d18;}.cls-10{fill:#cc8012;}</style></defs><g id="Layer_2" data-name="Layer 2"><g id="Layer_1-2" data-name="Layer 1"><rect class="cls-1" x="142" width="425.29" height="384"/><rect class="cls-2" width="158.29" height="384"/><path class="cls-3" d="M20.52,46.37,21,43.12H18.63l-.52,3.25H16.05l.51-3.25H15V41.24h1.91l.5-3.17H15.53V36.19h2.13L18.17,33h2.07l-.52,3.19h2.41L22.65,33h2.06l-.51,3.19h1.59v1.88H23.91l-.5,3.17h1.8v1.88h-2.1l-.52,3.25Zm-1.58-5.13h2.41l.5-3.17H19.43Z"/><rect class="cls-3" x="43.6" y="36.34" width="90.71" height="6.69" rx="3.34"/><path class="cls-3" d="M20.52,73.76,21,70.51H18.63l-.52,3.25H16.05l.51-3.25H15V68.63h1.91l.5-3.17H15.53V63.58h2.13l.51-3.19h2.07l-.52,3.19h2.41l.52-3.19h2.06l-.51,3.19h1.59v1.88H23.91l-.5,3.17h1.8v1.88h-2.1l-.52,3.25Zm-1.58-5.13h2.41l.5-3.17H19.43Z"/><rect class="cls-3" x="43.6" y="63.73" width="90.71" height="6.69" rx="3.34"/><path class="cls-3" d="M20.52,101.15,21,97.9H18.63l-.52,3.25H16.05l.51-3.25H15V96h1.91l.5-3.17H15.53V91h2.13l.51-3.19h2.07L19.72,91h2.41l.52-3.19h2.06L24.2,91h1.59v1.88H23.91L23.41,96h1.8V97.9h-2.1l-.52,3.25ZM18.94,96h2.41l.5-3.17H19.43Z"/><rect class="cls-3" x="43.6" y="91.12" width="90.71" height="6.69" rx="3.34"/><path class="cls-3" d="M20.52,128.54l.52-3.25H18.63l-.52,3.25H16.05l.51-3.25H15v-1.88h1.91l.5-3.17H15.53v-1.88h2.13l.51-3.19h2.07l-.52,3.19h2.41l.52-3.19h2.06l-.51,3.19h1.59v1.88H23.91l-.5,3.17h1.8v1.88h-2.1l-.52,3.25Zm-1.58-5.13h2.41l.5-3.17H19.43Z"/><rect class="cls-3" x="43.6" y="118.51" width="90.71" height="6.69" rx="3.34"/><path class="cls-3" d="M20.52,155.93l.52-3.25H18.63l-.52,3.25H16.05l.51-3.25H15V150.8h1.91l.5-3.17H15.53v-1.88h2.13l.51-3.19h2.07l-.52,3.19h2.41l.52-3.19h2.06l-.51,3.19h1.59v1.88H23.91l-.5,3.17h1.8v1.88h-2.1l-.52,3.25Zm-1.58-5.13h2.41l.5-3.17H19.43Z"/><rect class="cls-3" x="43.6" y="145.9" width="90.71" height="6.69" rx="3.34"/><rect class="cls-4" x="8.86" y="164.2" width="140.57" height="24.86" rx="4.4"/><path class="cls-3" d="M20.52,183.32l.52-3.25H18.63l-.52,3.25H16.05l.51-3.25H15v-1.88h1.91l.5-3.17H15.53v-1.88h2.13l.51-3.19h2.07l-.52,3.19h2.41l.52-3.19h2.06l-.51,3.19h1.59V175H23.91l-.5,3.17h1.8v1.88h-2.1l-.52,3.25Zm-1.58-5.13h2.41l.5-3.17H19.43Z"/><rect class="cls-5" x="43.6" y="173.29" width="90.71" height="6.69" rx="3.34"/><path class="cls-3" d="M20.52,210.71l.52-3.25H18.63l-.52,3.25H16.05l.51-3.25H15v-1.88h1.91l.5-3.17H15.53v-1.88h2.13l.51-3.19h2.07l-.52,3.19h2.41l.52-3.19h2.06l-.51,3.19h1.59v1.88H23.91l-.5,3.17h1.8v1.88h-2.1l-.52,3.25Zm-1.58-5.13h2.41l.5-3.17H19.43Z"/><rect class="cls-3" x="43.6" y="200.68" width="90.71" height="6.69" rx="3.34"/><path class="cls-3" d="M20.52,238.1l.52-3.25H18.63l-.52,3.25H16.05l.51-3.25H15V233h1.91l.5-3.17H15.53v-1.88h2.13l.51-3.19h2.07l-.52,3.19h2.41l.52-3.19h2.06l-.51,3.19h1.59v1.88H23.91l-.5,3.17h1.8v1.88h-2.1l-.52,3.25ZM18.94,233h2.41l.5-3.17H19.43Z"/><rect class="cls-3" x="43.6" y="228.07" width="90.71" height="6.69" rx="3.34"/><path class="cls-3" d="M20.52,265.49l.52-3.25H18.63l-.52,3.25H16.05l.51-3.25H15v-1.88h1.91l.5-3.17H15.53v-1.88h2.13l.51-3.19h2.07l-.52,3.19h2.41l.52-3.19h2.06l-.51,3.19h1.59v1.88H23.91l-.5,3.17h1.8v1.88h-2.1l-.52,3.25Zm-1.58-5.13h2.41l.5-3.17H19.43Z"/><rect class="cls-3" x="43.6" y="255.46" width="90.71" height="6.69" rx="3.34"/><path class="cls-3" d="M20.52,292.88l.52-3.25H18.63l-.52,3.25H16.05l.51-3.25H15v-1.88h1.91l.5-3.17H15.53V282.7h2.13l.51-3.19h2.07l-.52,3.19h2.41l.52-3.19h2.06l-.51,3.19h1.59v1.88H23.91l-.5,3.17h1.8v1.88h-2.1l-.52,3.25Zm-1.58-5.13h2.41l.5-3.17H19.43Z"/><rect class="cls-3" x="43.6" y="282.85" width="90.71" height="6.69" rx="3.34"/><path class="cls-3" d="M20.52,320.27,21,317H18.63l-.52,3.25H16.05l.51-3.25H15v-1.88h1.91l.5-3.17H15.53v-1.88h2.13l.51-3.19h2.07l-.52,3.19h2.41l.52-3.19h2.06l-.51,3.19h1.59V312H23.91l-.5,3.17h1.8V317h-2.1l-.52,3.25Zm-1.58-5.13h2.41l.5-3.17H19.43Z"/><rect class="cls-3" x="43.6" y="310.24" width="90.71" height="6.69" rx="3.34"/><path class="cls-3" d="M20.52,347.66l.52-3.25H18.63l-.52,3.25H16.05l.51-3.25H15v-1.88h1.91l.5-3.17H15.53v-1.88h2.13l.51-3.19h2.07l-.52,3.19h2.41l.52-3.19h2.06l-.51,3.19h1.59v1.88H23.91l-.5,3.17h1.8v1.88h-2.1l-.52,3.25Zm-1.58-5.13h2.41l.5-3.17H19.43Z"/><rect class="cls-3" x="43.6" y="337.63" width="90.71" height="6.69" rx="3.34"/><rect class="cls-2" x="206.29" y="44.45" width="316.29" height="305.77" rx="8.03"/><rect class="cls-5" x="221.4" y="56.26" width="17.78" height="17.78" rx="8.89"/><rect class="cls-5" x="250" y="58.57" width="132" height="10.31" rx="5.16"/><path class="cls-6" d="M481.73,59.81l4.18,8.46a6.36,6.36,0,0,0,4.79,3.48L500,73.11A6.35,6.35,0,0,1,503.56,84l-6.76,6.59A6.35,6.35,0,0,0,495,96.16l1.6,9.31a6.35,6.35,0,0,1-9.22,6.69L479,107.77a6.37,6.37,0,0,0-5.91,0l-8.36,4.39a6.35,6.35,0,0,1-9.22-6.69l1.6-9.31a6.35,6.35,0,0,0-1.83-5.62L448.51,84A6.35,6.35,0,0,1,452,73.11l9.35-1.36a6.35,6.35,0,0,0,4.78-3.48l4.18-8.46A6.35,6.35,0,0,1,481.73,59.81Z"/><rect class="cls-7" x="221.4" y="101.15" width="138.43" height="11.68" rx="5.84"/><rect class="cls-8" x="221.4" y="139.94" width="284.09" height="13.19" rx="6.59"/><rect class="cls-9" x="221.4" y="180.23" width="283.33" height="154.31" rx="6.8"/><circle class="cls-10" cx="364.43" cy="252.12" r="46.67"/><path class="cls-10" d="M344.33,310.24h40.19a24,24,0,0,1,24,24v0a0,0,0,0,1,0,0H320.29a0,0,0,0,1,0,0v0a24,24,0,0,1,24-24Z"/></g></g></svg>