<svg xmlns="http://www.w3.org/2000/svg" viewBox="0 0 81.48 81.43"><defs><style>.cls-1{fill:#fcf0de;}.cls-2{fill:#ca64f4;}</style></defs><g id="Layer_2" data-name="Layer 2"><g id="Layer_1-2" data-name="Layer 1"><circle class="cls-1" cx="40.71" cy="40.71" r="40.71"/><path class="cls-2" d="M9.43,56.5S0,48.07,0,40.71,3.82,0,40.71,0C69.43,0,80.93,26.08,81.43,37.1c.71,15.83-6.14,25.83-10.29,29.26,0,0-3.43-15.37-7.28-24.22A54.25,54.25,0,0,0,53.57,26.71,73.09,73.09,0,0,1,51.64,37.1c-1.71,7-8.78,13.37-8.78,13.37S41.28,40.11,39,34.86c-2.14-4.93-7.5-16.07-7.5-16.07s-12.94,4.72-16.93,15C10.5,44.29,9.43,56.5,9.43,56.5Z"/></g></g></svg>