<?xml version="1.0" encoding="utf-8"?>
<!-- Generator: Adobe Illustrator 25.4.1, SVG Export Plug-In . SVG Version: 6.00 Build 0)  -->
<svg version="1.1" id="Layer_1" xmlns="http://www.w3.org/2000/svg" xmlns:xlink="http://www.w3.org/1999/xlink" x="0px" y="0px"
	 viewBox="0 0 450 300" style="enable-background:new 0 0 450 300;" xml:space="preserve">
<style type="text/css">
	.st0{fill:#FFFFFF;}
</style>
<path class="st0" d="M0,0h450v300H0V0z"/>
<g>
	<path d="M249,86.6c-5.4-5.7-12.5-8.5-21.5-8.5c-11.2,0-19.6,3-25.4,9.1c-5.7,6.1-8.6,14.3-8.6,24.7c0,3.5-1.1,6.3-3.3,8.6
		c-2.2,2.3-5.1,3.4-8.7,3.4c-3.5,0-6.3-1.1-8.6-3.4c-2.3-2.3-3.4-5.2-3.4-8.6c0-10.9,2.4-20.5,7.2-29c4.8-8.5,11.6-15.1,20.4-19.8
		c8.8-4.7,19-7.1,30.5-7.1c10.1,0,19.2,2.2,27.3,6.5c8.1,4.3,14.4,10.4,19,18.2c4.6,7.8,6.8,16.6,6.8,26.6c0,8.5-1.3,15.9-4,22.3
		c-2.7,6.4-6.3,12-10.9,17c-4.6,5-10.5,10.4-17.7,16.2c-3.8,3-6.5,7-8.3,12c-1.7,5-2.6,9.6-2.6,13.7c0,3.5-1.1,6.3-3.3,8.6
		c-2.2,2.3-5.1,3.4-8.7,3.4c-3.5,0-6.3-1.1-8.6-3.4c-2.3-2.3-3.4-5.2-3.4-8.6c0-6.6,1.7-13.5,5-20.8c3.3-7.2,8.1-13.5,14.4-18.9
		c6-5,10.5-9.2,13.6-12.5s5.7-7.3,7.8-12c2.1-4.7,3.2-10.4,3.2-17C257,99.1,254.3,92.3,249,86.6z M236.8,216.1
		c3.2,3.2,4.8,7.1,4.8,11.7c0,4.4-1.6,8.2-4.8,11.5c-3.2,3.2-7.1,4.8-11.7,4.8c-4.4,0-8.2-1.6-11.5-4.8c-3.2-3.2-4.8-7-4.8-11.5
		c0-4.6,1.6-8.5,4.8-11.7c3.2-3.2,7-4.8,11.5-4.8C229.7,211.3,233.6,212.9,236.8,216.1z"/>
</g>
</svg>
