<svg xmlns="http://www.w3.org/2000/svg" viewBox="0 0 567.29 384"><defs><style>.cls-1{fill:#fafafa;}.cls-2{fill:#f2f3f5;}.cls-3{fill:#76787b;}.cls-4{fill:#d4d7dc;}.cls-5{fill:#707070;}.cls-6{fill:#282828;}.cls-7{fill:#f45692;}.cls-8{fill:#18a4f2;}.cls-9{fill:#ef9d18;}.cls-10{fill:#cc8012;}.cls-11{fill:#fc7ec4;}</style></defs><g id="Layer_2" data-name="Layer 2"><g id="Layer_1-2" data-name="Layer 1"><rect class="cls-1" x="142" width="425.29" height="384"/><rect class="cls-2" width="158.29" height="384"/><rect class="cls-3" x="43.6" y="36.34" width="90.71" height="6.69" rx="3.34"/><rect class="cls-3" x="43.6" y="63.73" width="90.71" height="6.69" rx="3.34"/><rect class="cls-3" x="43.6" y="91.12" width="90.71" height="6.69" rx="3.34"/><rect class="cls-3" x="43.6" y="118.51" width="90.71" height="6.69" rx="3.34"/><rect class="cls-3" x="43.6" y="145.9" width="90.71" height="6.69" rx="3.34"/><rect class="cls-4" x="8.86" y="164.2" width="140.57" height="24.86" rx="4.4"/><rect class="cls-3" x="43.6" y="173.29" width="90.71" height="6.69" rx="3.34"/><rect class="cls-3" x="43.6" y="200.68" width="90.71" height="6.69" rx="3.34"/><rect class="cls-3" x="43.6" y="228.07" width="90.71" height="6.69" rx="3.34"/><rect class="cls-3" x="43.6" y="255.46" width="90.71" height="6.69" rx="3.34"/><rect class="cls-3" x="43.6" y="282.85" width="90.71" height="6.69" rx="3.34"/><rect class="cls-3" x="43.6" y="310.24" width="90.71" height="6.69" rx="3.34"/><rect class="cls-3" x="43.6" y="337.63" width="90.71" height="6.69" rx="3.34"/><rect class="cls-2" x="206.85" y="40.64" width="240.3" height="286.5" rx="8.03"/><rect class="cls-5" x="381.33" y="54.76" width="52.83" height="52.83" rx="14.3"/><rect class="cls-6" x="250.51" y="54.76" width="86.3" height="10.31" rx="5.16"/><path class="cls-7" d="M230.54,51.83l1.36,2.76a2.09,2.09,0,0,0,1.56,1.14l3,.44a2.07,2.07,0,0,1,1.15,3.54l-2.2,2.15a2,2,0,0,0-.6,1.83l.52,3a2.08,2.08,0,0,1-3,2.19l-2.73-1.44a2.12,2.12,0,0,0-1.93,0L225,68.92a2.07,2.07,0,0,1-3-2.19l.52-3a2.07,2.07,0,0,0-.6-1.83l-2.21-2.15a2.08,2.08,0,0,1,1.15-3.54l3-.44a2.08,2.08,0,0,0,1.56-1.14l1.37-2.76A2.08,2.08,0,0,1,230.54,51.83Z"/><rect class="cls-8" x="221.96" y="83.96" width="114.85" height="11.68" rx="5.84"/><rect class="cls-6" x="218.33" y="122.12" width="215.55" height="13.19" rx="6.59"/><path class="cls-9" d="M433.59,168.59v123.1a6.79,6.79,0,0,1-6.8,6.8H225.12a6.78,6.78,0,0,1-6.74-6.05,4.73,4.73,0,0,1,0-.75V168.59a6.79,6.79,0,0,1,6.79-6.8H426.79A6.79,6.79,0,0,1,433.59,168.59Z"/><path class="cls-10" d="M306.88,298.49H225.12a6.78,6.78,0,0,1-6.74-6.05c.12-.2.25-.4.39-.59l46.28-62.33a6.75,6.75,0,0,1,11.38.88l26.92,51.14,4.75,9A6.75,6.75,0,0,1,306.88,298.49Z"/><path class="cls-10" d="M411.11,298.49H293.62a6.67,6.67,0,0,1,.15-2.9,6.81,6.81,0,0,1,1-2.14l8.56-11.91,47.21-65.68a6.75,6.75,0,0,1,11.26.45l48.64,80.75A6.73,6.73,0,0,1,411.11,298.49Z"/><circle class="cls-10" cx="405.65" cy="190.18" r="23.25"/><rect class="cls-2" x="206.53" y="335.45" width="18.59" height="18.59" rx="4.79"/><path class="cls-11" d="M222,342.48a3.5,3.5,0,0,0-3.5-3.5,3.46,3.46,0,0,0-2.07.69,1,1,0,0,1-1.16,0,3.5,3.5,0,0,0-5.58,2.81c0,.12,0,.31.05.49a2.47,2.47,0,0,0,.4,1c1,1.45,3.84,4.8,5.1,6.25a.8.8,0,0,0,1.21,0c1.19-1.38,3.83-4.45,4.93-6a3.23,3.23,0,0,0,.62-1.63Z"/><rect class="cls-6" x="218.38" y="307.63" width="96.69" height="7.71" rx="3.86"/></g></g></svg>