<svg xmlns="http://www.w3.org/2000/svg" viewBox="0 0 567.29 384"><defs><style>.cls-1{fill:#fafafa;}.cls-2{fill:#f2f3f5;}.cls-3{fill:#76787b;}.cls-4{fill:#d4d7dc;}.cls-5{fill:#282828;}.cls-6{fill:#f45692;}.cls-7{fill:#18a4f2;}.cls-8{fill:#ef9d18;}.cls-9{fill:#cc8012;}.cls-10{fill:red;}</style></defs><g id="Layer_2" data-name="Layer 2"><g id="Layer_1-2" data-name="Layer 1"><rect class="cls-1" x="142" width="425.29" height="384"/><rect class="cls-2" width="158.29" height="384"/><rect class="cls-3" x="43.6" y="36.34" width="90.71" height="6.69" rx="3.34"/><rect class="cls-3" x="43.6" y="63.73" width="90.71" height="6.69" rx="3.34"/><rect class="cls-3" x="43.6" y="91.12" width="90.71" height="6.69" rx="3.34"/><rect class="cls-3" x="43.6" y="118.51" width="90.71" height="6.69" rx="3.34"/><rect class="cls-3" x="43.6" y="145.9" width="90.71" height="6.69" rx="3.34"/><rect class="cls-4" x="8.86" y="164.2" width="140.57" height="24.86" rx="4.4"/><rect class="cls-3" x="43.6" y="173.29" width="90.71" height="6.69" rx="3.34"/><rect class="cls-3" x="43.6" y="200.68" width="90.71" height="6.69" rx="3.34"/><rect class="cls-3" x="43.6" y="228.07" width="90.71" height="6.69" rx="3.34"/><rect class="cls-3" x="43.6" y="255.46" width="90.71" height="6.69" rx="3.34"/><rect class="cls-3" x="43.6" y="282.85" width="90.71" height="6.69" rx="3.34"/><rect class="cls-3" x="43.6" y="310.24" width="90.71" height="6.69" rx="3.34"/><rect class="cls-3" x="43.6" y="337.63" width="90.71" height="6.69" rx="3.34"/><rect class="cls-2" x="206.29" y="44.45" width="182.86" height="305.77" rx="8.03"/><rect class="cls-5" x="250" y="58.57" width="59.14" height="11.84" rx="5.16"/><path class="cls-6" d="M231.6,58.36l1.07,2.18a1.65,1.65,0,0,0,1.23.89l2.4.35a1.63,1.63,0,0,1,.9,2.78l-1.73,1.7A1.61,1.61,0,0,0,235,67.7l.41,2.39A1.63,1.63,0,0,1,233,71.81l-2.15-1.13a1.63,1.63,0,0,0-1.52,0l-2.14,1.13a1.63,1.63,0,0,1-2.37-1.72l.41-2.39a1.63,1.63,0,0,0-.47-1.44l-1.74-1.7a1.63,1.63,0,0,1,.91-2.78l2.4-.35a1.65,1.65,0,0,0,1.23-.89l1.07-2.18A1.64,1.64,0,0,1,231.6,58.36Z"/><rect class="cls-7" x="221.4" y="83.09" width="85.91" height="11.68" rx="5.84"/><rect class="cls-5" x="221.4" y="111.92" width="154.31" height="13.19" rx="6.59"/><rect class="cls-5" x="222.57" y="135.4" width="70.44" height="13.19" rx="6.59"/><rect class="cls-5" x="222.57" y="155.1" width="54.57" height="13.19" rx="6.59"/><rect class="cls-5" x="299.14" y="136.14" width="70.44" height="13.19" rx="6.59"/><rect class="cls-5" x="299.14" y="155.85" width="54.57" height="13.19" rx="6.59"/><rect class="cls-8" x="221.4" y="180.23" width="154.31" height="154.31" rx="6.8"/><circle class="cls-9" cx="297.56" cy="244.96" r="46.67"/><path class="cls-9" d="M277.46,310.24h40.19a24,24,0,0,1,24,24v0a0,0,0,0,1,0,0H253.41a0,0,0,0,1,0,0v0A24,24,0,0,1,277.46,310.24Z"/><rect class="cls-10" x="319.46" y="56.2" width="56.25" height="38.57" rx="13.21"/></g></g></svg>